<svg xmlns="http://www.w3.org/2000/svg" xmlns:xlink="http://www.w3.org/1999/xlink" width="500" zoomAndPan="magnify" viewBox="0 0 375 374.999991" height="500" preserveAspectRatio="xMidYMid meet" version="1.0"><defs><clipPath id="e64bea9aee"><path d="M 187.5 0 C 83.945312 0 0 83.945312 0 187.5 C 0 291.054688 83.945312 375 187.5 375 C 291.054688 375 375 291.054688 375 187.5 C 375 83.945312 291.054688 0 187.5 0 Z M 187.5 0 " clip-rule="nonzero"/></clipPath></defs><g clip-path="url(#e64bea9aee)"><rect x="-37.5" width="450" fill="#00cc9a" y="-37.499999" height="449.999989" fill-opacity="1"/></g><path stroke-linecap="round" transform="matrix(10.062499, 0, 0, 10.062499, 66.759442, 66.75943)" fill="none" stroke-linejoin="round" d="M 10.999839 19.999841 C 10.782836 20.000618 10.566221 19.991301 10.349994 19.971891 C 10.133768 19.952093 9.918706 19.92259 9.705196 19.883382 C 9.492075 19.843785 9.280507 19.794484 9.071656 19.73509 C 8.862805 19.676083 8.657059 19.607372 8.454808 19.528956 C 8.252168 19.450928 8.053799 19.363195 7.859311 19.266534 C 7.664823 19.169872 7.475382 19.064282 7.290988 18.949763 C 7.106593 18.835633 6.927634 18.712574 6.754497 18.581751 C 6.58136 18.45054 6.414823 18.311953 6.254497 18.165602 C 6.094171 18.018863 5.941221 17.865136 5.795258 17.704422 C 5.649295 17.543707 5.511096 17.376394 5.38105 17.202869 C 5.250615 17.029344 5.128721 16.849996 5.014978 16.664825 C 4.901236 16.480043 4.796422 16.290214 4.700537 16.095338 C 4.604264 15.90085 4.517696 15.701704 4.440056 15.499064 C 4.362416 15.296425 4.294481 15.090291 4.236252 14.881052 C 4.178022 14.672201 4.129497 14.460633 4.090677 14.247123 C 4.052245 14.033226 4.023519 13.818552 4.004885 13.601937 C 3.986252 13.38571 3.977323 13.169095 3.978876 12.952092 C 3.980429 12.734701 3.992075 12.518474 4.013814 12.302247 C 4.035165 12.086409 4.066997 11.871735 4.108534 11.658614 C 4.150071 11.445493 4.201702 11.234701 4.262649 11.026626 C 4.323984 10.818163 4.394637 10.613194 4.474994 10.411331 C 4.555351 10.209856 4.644637 10.012263 4.743627 9.81894 C 4.84223 9.625228 4.949373 9.436952 5.065832 9.253722 C 5.181904 9.070104 5.306516 8.892697 5.43928 8.720725 C 5.572044 8.548753 5.712183 8.383769 5.860475 8.224995 C 6.008379 8.066222 6.163659 7.914436 6.325926 7.770415 C 6.488193 7.626005 6.656671 7.489359 6.83136 7.360865 C 7.006438 7.232371 7.186951 7.112029 7.372898 7.000228 C 7.559233 6.888427 7.749839 6.785166 7.945879 6.691222 C 8.141531 6.597278 8.341066 6.512262 8.544482 6.436952 C 8.748286 6.361253 8.954808 6.295647 9.164435 6.239358 C 9.374063 6.18307 9.586019 6.136486 9.799917 6.099995 C 15.49984 4.99984 16.99984 4.480042 18.99984 1.999839 C 19.99984 3.99984 20.99984 6.179964 20.99984 9.99984 C 20.99984 15.499841 16.219948 19.999841 10.999839 19.999841 Z M 10.999839 19.999841 " stroke="#000000" stroke-width="1.5" stroke-opacity="1" stroke-miterlimit="4"/><path stroke-linecap="round" transform="matrix(10.062499, 0, 0, 10.062499, 66.759442, 66.75943)" fill="none" stroke-linejoin="round" d="M 1.999838 20.999841 C 1.999838 17.999841 3.849994 15.639981 7.079808 14.999841 C 9.499839 14.520027 11.999839 12.999841 12.999839 11.99984 " stroke="#000000" stroke-width="1.5" stroke-opacity="1" stroke-miterlimit="4"/></svg>