<?xml version="1.0" standalone="no"?>
<!DOCTYPE svg PUBLIC "-//W3C//DTD SVG 20010904//EN"
 "http://www.w3.org/TR/2001/REC-SVG-20010904/DTD/svg10.dtd">
<svg version="1.0" xmlns="http://www.w3.org/2000/svg"
 width="499.000000pt" height="499.000000pt" viewBox="0 0 499.000000 499.000000"
 preserveAspectRatio="xMidYMid meet">

<g transform="translate(0.000000,499.000000) scale(0.100000,-0.100000)"
fill="#000000" stroke="none">
<path d="M2184 4865 c-143 -21 -318 -63 -444 -107 -742 -258 -1308 -874 -1494
-1625 -57 -229 -61 -260 -61 -563 0 -305 6 -365 62 -580 214 -828 850 -1463
1677 -1675 557 -143 1158 -70 1666 202 479 256 879 706 1064 1198 20 55 42
111 47 123 15 37 66 247 86 352 14 77 18 148 17 375 0 287 -3 312 -53 540 -65
297 -243 659 -446 912 -80 99 -286 301 -386 378 -331 254 -710 413 -1119 469
-140 20 -485 20 -616 1z m1211 -1239 c226 -19 282 -27 356 -55 95 -36 193
-140 228 -241 24 -69 51 -298 63 -529 19 -382 -14 -872 -70 -1019 -54 -140
-173 -229 -344 -257 -387 -61 -1880 -61 -2264 0 -145 24 -219 66 -299 170 -62
82 -96 246 -115 565 -19 319 -3 734 39 961 43 239 155 348 391 383 103 15 368
33 565 40 275 9 1270 -4 1450 -18z"/>
<path d="M2190 2566 c0 -251 2 -456 5 -456 3 0 69 37 148 83 78 46 254 148
390 226 136 79 246 145 245 146 -2 2 -149 87 -328 190 -179 103 -329 190 -335
195 -5 4 -36 21 -67 39 l-58 32 0 -455z"/>
</g>
</svg>
